# xmcd CD database file
#
# Track frame offsets:
#	150
#	17232
#	29767
#	43654
#	65871
#	82295
#	101931
#	117857
#	161055
#	179848
#	198317
#	210105
#	232328
#	252829
#	271922
#	299462
#	314752
#	332455
#	350202
#	361838
#	388480
#
# Disc length: 5384 seconds
#
# Revision: 1
# Processed by: cddbd v1.4PL0 Copyright (c) Steve Scherf et al.
# Submitted via: Gronk 1.4
#
DISCID=61150615
DTITLE=Ryan Adams - Gold
DYEAR=2002
DGENRE=country
TTITLE0=Ryan Adams - New York, New York
TTITLE1=Ryan Adams - Firecracker
TTITLE2=Ryan Adams - Answering Bell
TTITLE3=Ryan Adams - La Cienga Just Smiled
TTITLE4=Ryan Adams - The Rescue Blues
TTITLE5=Ryan Adams - Somehow, Someday
TTITLE6=Ryan Adams - When the stars go blue
TTITLE7=Ryan Adams - Nobody Girl
TTITLE8=Ryan Adams - Sylvia Plath
TTITLE9=Ryan Adams - Enemy Fire
TTITLE10=Ryan Adams - Gonna make you Love me
TTITLE11=Ryan Adams - Wild Flowers
TTITLE12=Ryan Adams - Harder now that it's over
TTITLE13=Ryan Adams - Touch, Feel and Lose
TTITLE14=Ryan Adams - Tina Toledo's street walking B
TTITLE15=Ryan Adams - Goodnite Hollywood Blvd
TTITLE16=Ryan Adams - Rosalie come and go
TTITLE17=Ryan Adams - The Fools we are as Men
TTITLE18=Ryan Adams - Sweet black Magic
TTITLE19=Ryan Adams - The Bar is a beautiful Place
TTITLE20=Ryan Adams - Cannonball Days
EXTD=90 Min CD
EXTT0=
EXTT1=
EXTT2=
EXTT3=
EXTT4=
EXTT5=
EXTT6=
EXTT7=
EXTT8=
EXTT9=
EXTT10=
EXTT11=
EXTT12=
EXTT13=
EXTT14=
EXTT15=
EXTT16=
EXTT17=
EXTT18=
EXTT19=
EXTT20=
PLAYORDER=
